<mxfile host="app.diagrams.net" modified="2020-10-28T11:30:25.506Z" agent="5.0 (Windows NT 10.0; Win64; x64) AppleWebKit/537.36 (KHTML, like Gecko) Chrome/86.0.4240.111 Safari/537.36 Edg/86.0.622.51" etag="rydhgJMrA1FIB6sIkhlM" version="13.8.5" type="github">
  <diagram id="C5RBs43oDa-KdzZeNtuy" name="Page-1">
    <mxGraphModel dx="1014" dy="567" grid="1" gridSize="10" guides="1" tooltips="1" connect="1" arrows="1" fold="1" page="1" pageScale="1" pageWidth="827" pageHeight="1169" math="0" shadow="0">
      <root>
        <mxCell id="WIyWlLk6GJQsqaUBKTNV-0" />
        <mxCell id="WIyWlLk6GJQsqaUBKTNV-1" parent="WIyWlLk6GJQsqaUBKTNV-0" />
        <mxCell id="rVbdCpr6x1qe2M_tCrd3-0" value="&lt;&lt;Form&gt;&gt;&#xa;Form1" style="swimlane;fontStyle=1;align=center;verticalAlign=top;childLayout=stackLayout;horizontal=1;startSize=40;horizontalStack=0;resizeParent=1;resizeParentMax=0;resizeLast=0;collapsible=1;marginBottom=0;" parent="WIyWlLk6GJQsqaUBKTNV-1" vertex="1">
          <mxGeometry x="339" y="31" width="160" height="90" as="geometry" />
        </mxCell>
        <mxCell id="rVbdCpr6x1qe2M_tCrd3-2" value="" style="line;strokeWidth=1;fillColor=none;align=left;verticalAlign=middle;spacingTop=-1;spacingLeft=3;spacingRight=3;rotatable=0;labelPosition=right;points=[];portConstraint=eastwest;" parent="rVbdCpr6x1qe2M_tCrd3-0" vertex="1">
          <mxGeometry y="40" width="160" height="8" as="geometry" />
        </mxCell>
        <mxCell id="rVbdCpr6x1qe2M_tCrd3-3" value="command1Click()&#xa;Command2Click()" style="text;strokeColor=none;fillColor=none;align=left;verticalAlign=top;spacingLeft=4;spacingRight=4;overflow=hidden;rotatable=0;points=[[0,0.5],[1,0.5]];portConstraint=eastwest;" parent="rVbdCpr6x1qe2M_tCrd3-0" vertex="1">
          <mxGeometry y="48" width="160" height="42" as="geometry" />
        </mxCell>
        <mxCell id="rVbdCpr6x1qe2M_tCrd3-4" value="&lt;&lt;ADO Class&gt;&gt;&#xa;Author" style="swimlane;fontStyle=1;align=center;verticalAlign=top;childLayout=stackLayout;horizontal=1;startSize=40;horizontalStack=0;resizeParent=1;resizeParentMax=0;resizeLast=0;collapsible=1;marginBottom=0;" parent="WIyWlLk6GJQsqaUBKTNV-1" vertex="1">
          <mxGeometry x="149" y="241" width="170" height="274" as="geometry" />
        </mxCell>
        <mxCell id="rVbdCpr6x1qe2M_tCrd3-6" value="" style="line;strokeWidth=1;fillColor=none;align=left;verticalAlign=middle;spacingTop=-1;spacingLeft=3;spacingRight=3;rotatable=0;labelPosition=right;points=[];portConstraint=eastwest;" parent="rVbdCpr6x1qe2M_tCrd3-4" vertex="1">
          <mxGeometry y="40" width="170" height="8" as="geometry" />
        </mxCell>
        <mxCell id="rVbdCpr6x1qe2M_tCrd3-7" value="eof()&#xa;getOne()&#xa;query()&#xa;recordset()&#xa;name()&#xa;id()&#xa;fName()&#xa;lName()&#xa;phone&#xa;address()&#xa;city()&#xa;state()&#xa;zip()&#xa;contract&#xa;getNew()" style="text;strokeColor=none;fillColor=none;align=left;verticalAlign=top;spacingLeft=4;spacingRight=4;overflow=hidden;rotatable=0;points=[[0,0.5],[1,0.5]];portConstraint=eastwest;" parent="rVbdCpr6x1qe2M_tCrd3-4" vertex="1">
          <mxGeometry y="48" width="170" height="226" as="geometry" />
        </mxCell>
        <mxCell id="rVbdCpr6x1qe2M_tCrd3-8" value="&lt;&lt;ADO Class&gt;&gt;&#xa;Authors" style="swimlane;fontStyle=1;align=center;verticalAlign=top;childLayout=stackLayout;horizontal=1;startSize=40;horizontalStack=0;resizeParent=1;resizeParentMax=0;resizeLast=0;collapsible=1;marginBottom=0;" parent="WIyWlLk6GJQsqaUBKTNV-1" vertex="1">
          <mxGeometry x="519" y="241" width="160" height="344" as="geometry" />
        </mxCell>
        <mxCell id="rVbdCpr6x1qe2M_tCrd3-10" value="" style="line;strokeWidth=1;fillColor=none;align=left;verticalAlign=middle;spacingTop=-1;spacingLeft=3;spacingRight=3;rotatable=0;labelPosition=right;points=[];portConstraint=eastwest;" parent="rVbdCpr6x1qe2M_tCrd3-8" vertex="1">
          <mxGeometry y="40" width="160" height="8" as="geometry" />
        </mxCell>
        <mxCell id="rVbdCpr6x1qe2M_tCrd3-11" value="addNew()&#xa;bof()&#xa;eof()&#xa;getAll()&#xa;moveFirst()&#xa;moveLast()&#xa;moveNext()&#xa;movePrevious()&#xa;query()&#xa;recordset()&#xa;name()&#xa;id()&#xa;fName()&#xa;lName()&#xa;phone()&#xa;address()&#xa;city()&#xa;zip()&#xa;contract()&#xa;getNew()&#xa;" style="text;strokeColor=none;fillColor=none;align=left;verticalAlign=top;spacingLeft=4;spacingRight=4;overflow=hidden;rotatable=0;points=[[0,0.5],[1,0.5]];portConstraint=eastwest;" parent="rVbdCpr6x1qe2M_tCrd3-8" vertex="1">
          <mxGeometry y="48" width="160" height="296" as="geometry" />
        </mxCell>
        <mxCell id="rVbdCpr6x1qe2M_tCrd3-15" value="" style="edgeStyle=none;html=1;endArrow=open;endSize=12;dashed=1;verticalAlign=bottom;entryX=0.25;entryY=0;entryDx=0;entryDy=0;exitX=1;exitY=0.5;exitDx=0;exitDy=0;" parent="WIyWlLk6GJQsqaUBKTNV-1" source="rVbdCpr6x1qe2M_tCrd3-3" target="rVbdCpr6x1qe2M_tCrd3-8" edge="1">
          <mxGeometry width="160" relative="1" as="geometry">
            <mxPoint x="329" y="181" as="sourcePoint" />
            <mxPoint x="489" y="181" as="targetPoint" />
          </mxGeometry>
        </mxCell>
        <mxCell id="rVbdCpr6x1qe2M_tCrd3-16" value="" style="edgeStyle=none;html=1;endArrow=open;endSize=12;dashed=1;verticalAlign=bottom;entryX=0.75;entryY=0;entryDx=0;entryDy=0;exitX=0;exitY=0.5;exitDx=0;exitDy=0;" parent="WIyWlLk6GJQsqaUBKTNV-1" source="rVbdCpr6x1qe2M_tCrd3-3" target="rVbdCpr6x1qe2M_tCrd3-4" edge="1">
          <mxGeometry width="160" relative="1" as="geometry">
            <mxPoint x="329" y="181" as="sourcePoint" />
            <mxPoint x="489" y="181" as="targetPoint" />
          </mxGeometry>
        </mxCell>
        <mxCell id="rVbdCpr6x1qe2M_tCrd3-17" value="&lt;p style=&quot;margin: 0px ; margin-top: 4px ; margin-left: 10px ; text-align: left&quot;&gt;&lt;b&gt;idb&lt;/b&gt;&amp;nbsp;Klasy&lt;/p&gt;" style="html=1;strokeWidth=1;shape=mxgraph.sysml.package;html=1;overflow=fill;whiteSpace=wrap;" parent="WIyWlLk6GJQsqaUBKTNV-1" vertex="1">
          <mxGeometry x="110" width="1440" height="860" as="geometry" />
        </mxCell>
        <mxCell id="rVbdCpr6x1qe2M_tCrd3-18" value="&lt;&lt;Form&gt;&gt;&#xa;Form1" style="swimlane;fontStyle=1;align=center;verticalAlign=top;childLayout=stackLayout;horizontal=1;startSize=40;horizontalStack=0;resizeParent=1;resizeParentMax=0;resizeLast=0;collapsible=1;marginBottom=0;" parent="WIyWlLk6GJQsqaUBKTNV-1" vertex="1">
          <mxGeometry x="720" y="110" width="160" height="90" as="geometry" />
        </mxCell>
        <mxCell id="rVbdCpr6x1qe2M_tCrd3-19" value="" style="line;strokeWidth=1;fillColor=none;align=left;verticalAlign=middle;spacingTop=-1;spacingLeft=3;spacingRight=3;rotatable=0;labelPosition=right;points=[];portConstraint=eastwest;" parent="rVbdCpr6x1qe2M_tCrd3-18" vertex="1">
          <mxGeometry y="40" width="160" height="8" as="geometry" />
        </mxCell>
        <mxCell id="rVbdCpr6x1qe2M_tCrd3-20" value="command1Click()&#xa;Command2Click()" style="text;strokeColor=none;fillColor=none;align=left;verticalAlign=top;spacingLeft=4;spacingRight=4;overflow=hidden;rotatable=0;points=[[0,0.5],[1,0.5]];portConstraint=eastwest;" parent="rVbdCpr6x1qe2M_tCrd3-18" vertex="1">
          <mxGeometry y="48" width="160" height="42" as="geometry" />
        </mxCell>
        <mxCell id="rVbdCpr6x1qe2M_tCrd3-21" value="&lt;&lt;ADO Class&gt;&gt;&#xa;Author" style="swimlane;fontStyle=1;align=center;verticalAlign=top;childLayout=stackLayout;horizontal=1;startSize=40;horizontalStack=0;resizeParent=1;resizeParentMax=0;resizeLast=0;collapsible=1;marginBottom=0;" parent="WIyWlLk6GJQsqaUBKTNV-1" vertex="1">
          <mxGeometry x="530" y="320" width="170" height="274" as="geometry" />
        </mxCell>
        <mxCell id="rVbdCpr6x1qe2M_tCrd3-22" value="" style="line;strokeWidth=1;fillColor=none;align=left;verticalAlign=middle;spacingTop=-1;spacingLeft=3;spacingRight=3;rotatable=0;labelPosition=right;points=[];portConstraint=eastwest;" parent="rVbdCpr6x1qe2M_tCrd3-21" vertex="1">
          <mxGeometry y="40" width="170" height="8" as="geometry" />
        </mxCell>
        <mxCell id="rVbdCpr6x1qe2M_tCrd3-23" value="eof()&#xa;getOne()&#xa;query()&#xa;recordset()&#xa;name()&#xa;id()&#xa;fName()&#xa;lName()&#xa;phone&#xa;address()&#xa;city()&#xa;state()&#xa;zip()&#xa;contract&#xa;getNew()" style="text;strokeColor=none;fillColor=none;align=left;verticalAlign=top;spacingLeft=4;spacingRight=4;overflow=hidden;rotatable=0;points=[[0,0.5],[1,0.5]];portConstraint=eastwest;" parent="rVbdCpr6x1qe2M_tCrd3-21" vertex="1">
          <mxGeometry y="48" width="170" height="226" as="geometry" />
        </mxCell>
        <mxCell id="rVbdCpr6x1qe2M_tCrd3-24" value="&lt;&lt;ADO Class&gt;&gt;&#xa;Authors" style="swimlane;fontStyle=1;align=center;verticalAlign=top;childLayout=stackLayout;horizontal=1;startSize=40;horizontalStack=0;resizeParent=1;resizeParentMax=0;resizeLast=0;collapsible=1;marginBottom=0;" parent="WIyWlLk6GJQsqaUBKTNV-1" vertex="1">
          <mxGeometry x="900" y="320" width="160" height="344" as="geometry" />
        </mxCell>
        <mxCell id="rVbdCpr6x1qe2M_tCrd3-25" value="" style="line;strokeWidth=1;fillColor=none;align=left;verticalAlign=middle;spacingTop=-1;spacingLeft=3;spacingRight=3;rotatable=0;labelPosition=right;points=[];portConstraint=eastwest;" parent="rVbdCpr6x1qe2M_tCrd3-24" vertex="1">
          <mxGeometry y="40" width="160" height="8" as="geometry" />
        </mxCell>
        <mxCell id="rVbdCpr6x1qe2M_tCrd3-26" value="addNew()&#xa;bof()&#xa;eof()&#xa;getAll()&#xa;moveFirst()&#xa;moveLast()&#xa;moveNext()&#xa;movePrevious()&#xa;query()&#xa;recordset()&#xa;name()&#xa;id()&#xa;fName()&#xa;lName()&#xa;phone()&#xa;address()&#xa;city()&#xa;zip()&#xa;contract()&#xa;getNew()&#xa;" style="text;strokeColor=none;fillColor=none;align=left;verticalAlign=top;spacingLeft=4;spacingRight=4;overflow=hidden;rotatable=0;points=[[0,0.5],[1,0.5]];portConstraint=eastwest;" parent="rVbdCpr6x1qe2M_tCrd3-24" vertex="1">
          <mxGeometry y="48" width="160" height="296" as="geometry" />
        </mxCell>
        <mxCell id="rVbdCpr6x1qe2M_tCrd3-27" value="" style="edgeStyle=none;html=1;endArrow=open;endSize=12;dashed=1;verticalAlign=bottom;entryX=0.25;entryY=0;entryDx=0;entryDy=0;exitX=1;exitY=0.5;exitDx=0;exitDy=0;" parent="WIyWlLk6GJQsqaUBKTNV-1" source="rVbdCpr6x1qe2M_tCrd3-20" target="rVbdCpr6x1qe2M_tCrd3-24" edge="1">
          <mxGeometry width="160" relative="1" as="geometry">
            <mxPoint x="710" y="260" as="sourcePoint" />
            <mxPoint x="870" y="260" as="targetPoint" />
          </mxGeometry>
        </mxCell>
        <mxCell id="rVbdCpr6x1qe2M_tCrd3-28" value="" style="edgeStyle=none;html=1;endArrow=open;endSize=12;dashed=1;verticalAlign=bottom;entryX=0.75;entryY=0;entryDx=0;entryDy=0;exitX=0;exitY=0.5;exitDx=0;exitDy=0;" parent="WIyWlLk6GJQsqaUBKTNV-1" source="rVbdCpr6x1qe2M_tCrd3-20" target="rVbdCpr6x1qe2M_tCrd3-21" edge="1">
          <mxGeometry width="160" relative="1" as="geometry">
            <mxPoint x="710" y="260" as="sourcePoint" />
            <mxPoint x="870" y="260" as="targetPoint" />
          </mxGeometry>
        </mxCell>
      </root>
    </mxGraphModel>
  </diagram>
</mxfile>
